<svg xmlns="http://www.w3.org/2000/svg" xmlns:xlink="http://www.w3.org/1999/xlink" id="Layer_1" x="0" y="0" version="1.1" viewBox="0 0 56 55.4" xml:space="preserve" style="enable-background:new 0 0 56 55.4"><style type="text/css">.st0{fill:#e7e7e7}.st1{filter:url(#Adobe_OpacityMaskFilter)}.st2{fill:#f5f5f5}.st3{mask:url(#SVGID_3_)}.st4{fill:#fff}.st5{fill:#fbaf86}.st6{fill:#f3d160}.st7{fill:#62b0fa}</style><g><g><defs><rect id="SVGID_1_" width="2880" height="1512" x="-446.9" y="-40.2"/></defs><clipPath id="SVGID_2_"><use xlink:href="#SVGID_1_" style="overflow:visible"/></clipPath></g></g><path d="M3.1,10.8c0-4.4,3.6-8,8-8h34c4.4,0,8,3.6,8,8v34c0,4.4-3.6,8-8,8h-34c-4.4,0-8-3.6-8-8V10.8z" class="st0"/><defs><filter id="Adobe_OpacityMaskFilter" width="60.5" height="50" x="3.1" y="2.8" filterUnits="userSpaceOnUse"><feColorMatrix type="matrix" values="1 0 0 0 0 0 1 0 0 0 0 0 1 0 0 0 0 0 1 0"/></filter></defs><mask id="SVGID_3_" width="60.5" height="50" x="3.1" y="2.8" maskUnits="userSpaceOnUse"><g class="st1"><path d="M3.1,10.8c0-4.4,3.6-8,8-8h34c4.4,0,8,3.6,8,8v34c0,4.4-3.6,8-8,8h-34c-4.4,0-8-3.6-8-8V10.8z" class="st2"/></g></mask><g class="st3"><g><rect width="1" height="50" x="48.1" y="2.8" class="st4"/><rect width="50" height="1" x="3.1" y="7.3" class="st4"/><rect width="50" height="1" x="3.1" y="17.3" class="st4"/><rect width="50" height="1" x="3.1" y="27.3" class="st4"/><rect width="50" height="1" x="3.1" y="37.3" class="st4"/><rect width="50" height="1" x="3.1" y="47.3" class="st4"/><rect width="1" height="50" x="38.1" y="2.8" class="st4"/><rect width="1" height="50" x="28.1" y="2.8" class="st4"/><rect width="1" height="50" x="18.1" y="2.8" class="st4"/><rect width="1" height="50" x="8.1" y="2.8" class="st4"/><path d="M33.1,39.5C19.3,28.2,10.1,14,3.1,2.8v24.9v14.6v10.6h60.5C50.7,50.3,41.3,46,33.1,39.5z" class="st5"/><path d="M7.5,26.3c-2-0.1-2.9,0.2-4.4,1.2v14.7v10.6h60.5l-0.2,0c-8.8-1.5-13.8-2.4-22.2-5.9l0,0h0 c-5.1-2.7-7.9-4.2-12.5-7.4C16.3,30,10.9,26.3,7.5,26.3z" class="st6"/><path d="M3.1,42.2c2.7-3.7,4.5-5.4,9.4-5.8c3.4-0.2,7.8,1.7,18.5,7c11.7,5.7,18.9,7.2,32.7,9.3H3.1V42.2z" class="st7"/></g></g></svg>